<?xml version="1.0" standalone="no"?>
<!DOCTYPE svg PUBLIC "-//W3C//DTD SVG 20010904//EN"
 "http://www.w3.org/TR/2001/REC-SVG-20010904/DTD/svg10.dtd">
<svg version="1.0" xmlns="http://www.w3.org/2000/svg"
 width="264.000000pt" height="264.000000pt" viewBox="0 0 264.000000 264.000000"
 preserveAspectRatio="xMidYMid meet">

<g transform="translate(0.000000,264.000000) scale(0.100000,-0.100000)"
fill="#000000" stroke="none">
<path d="M1358 1843 l-3 -628 -27 53 c-46 88 -86 140 -144 183 -29 23 -54 46
-54 53 0 6 9 26 21 45 11 18 19 34 17 35 -12 9 -142 58 -178 67 -25 6 -88 11
-140 11 -274 0 -516 -188 -585 -453 -23 -88 -17 -260 13 -343 70 -194 246
-350 441 -392 299 -63 594 89 707 364 l23 57 3 -210 3 -210 383 -3 382 -2 0
50 0 50 -130 0 -130 0 0 900 0 900 130 0 130 0 0 50 0 50 -430 0 -430 0 -2
-627z m373 -373 l0 -895 -126 -3 -125 -3 0 901 0 901 125 -3 125 -3 1 -895z
m-741 53 c222 -61 378 -280 356 -499 -18 -175 -119 -322 -270 -393 -89 -42
-155 -54 -255 -49 -71 4 -100 11 -163 41 -313 144 -387 540 -146 777 84 83
171 124 290 139 72 9 111 5 188 -16z"/>
<path d="M362 288 c-24 -24 -14 -57 23 -72 36 -15 44 -33 23 -54 -16 -16 -23
-15 -43 4 -20 20 -33 11 -15 -11 27 -33 80 -12 80 33 0 17 -9 27 -36 38 -24
10 -34 20 -32 32 4 21 38 29 49 11 4 -7 12 -10 16 -5 9 8 -23 36 -42 36 -6 0
-16 -5 -23 -12z"/>
<path d="M527 280 c-56 -44 -23 -140 50 -140 33 0 83 33 83 56 0 10 -13 14
-52 12 l-53 -1 45 -6 45 -6 -22 -22 c-28 -28 -53 -29 -87 -2 -31 25 -34 61 -6
89 22 22 69 27 88 8 6 -6 15 -9 19 -5 11 12 -11 27 -48 33 -26 4 -41 0 -62
-16z"/>
<path d="M1053 220 c0 -47 2 -74 4 -60 8 45 23 47 54 11 16 -19 31 -32 35 -29
3 4 -3 17 -15 29 -35 37 -36 58 -5 90 15 16 23 29 16 29 -6 0 -24 -16 -39 -35
-15 -19 -31 -35 -35 -35 -4 0 -9 19 -11 43 -2 23 -4 4 -4 -43z"/>
<path d="M1207 292 l-38 -3 3 -72 3 -72 38 -3 c21 -2 37 1 37 7 0 6 -13 11
-30 11 -25 0 -30 4 -30 25 0 21 5 25 30 25 17 0 30 5 30 10 0 6 -13 10 -30 10
-25 0 -30 4 -30 24 0 21 5 25 38 28 20 2 33 5 27 8 -5 3 -27 4 -48 2z"/>
<path d="M1270 288 c0 -4 7 -8 15 -8 12 0 15 -14 15 -64 0 -36 5 -68 10 -71 6
-4 10 20 10 64 0 60 3 71 17 71 9 0 13 3 10 7 -10 9 -77 11 -77 1z"/>
<path d="M1393 292 c-21 -3 -23 -8 -23 -78 l0 -74 45 0 c25 0 45 5 45 10 0 6
-16 10 -35 10 -31 0 -35 3 -35 25 0 21 5 25 30 25 17 0 30 5 30 10 0 6 -13 10
-30 10 -25 0 -30 4 -30 25 0 22 4 25 37 25 20 0 34 2 31 5 -8 8 -40 12 -65 7z"/>
<path d="M1508 279 c-58 -43 -22 -139 51 -139 31 0 70 24 58 36 -4 5 -11 3
-15 -3 -4 -6 -19 -14 -34 -18 -21 -5 -33 -1 -52 19 -31 30 -33 59 -6 86 21 21
74 27 85 10 3 -5 12 -10 18 -10 7 1 1 10 -12 20 -30 25 -59 25 -93 -1z"/>
<path d="M1776 275 c-74 -68 27 -180 105 -115 28 22 14 27 -15 5 -61 -46 -132
39 -81 95 20 22 56 26 86 10 10 -6 19 -7 19 -2 0 11 -45 32 -69 32 -10 0 -30
-11 -45 -25z"/>
<path d="M1960 284 c-14 -10 -28 -23 -32 -28 -14 -20 -8 -63 13 -90 44 -55
139 -21 139 51 0 63 -70 102 -120 67z m90 -24 c27 -27 25 -56 -5 -85 -28 -29
-51 -31 -83 -9 -27 18 -30 69 -5 96 21 24 68 23 93 -2z"/>
<path d="M2310 288 c0 -5 7 -8 15 -8 12 0 15 -15 15 -71 0 -44 4 -68 10 -64 6
3 10 35 10 70 0 52 3 64 18 67 9 3 -2 6 -25 9 -24 2 -43 1 -43 -3z"/>
<path d="M80 215 l0 -75 39 0 c56 0 91 31 91 80 0 48 -27 70 -87 70 l-43 0 0
-75z m100 40 c20 -21 22 -30 14 -53 -10 -29 -56 -57 -80 -48 -10 4 -14 22 -14
66 0 59 0 60 28 60 18 0 38 -10 52 -25z"/>
<path d="M240 215 l0 -75 40 0 c48 0 54 17 8 22 -25 2 -33 8 -33 23 0 15 8 21
33 23 42 4 41 22 -2 22 -28 0 -33 3 -32 23 1 17 9 23 36 28 l35 6 -42 2 -43 1
0 -75z"/>
<path d="M456 220 c0 -39 4 -73 7 -77 4 -3 7 28 7 70 0 43 -3 77 -7 77 -5 0
-8 -32 -7 -70z"/>
<path d="M680 221 c0 -39 5 -73 10 -76 6 -4 10 17 10 55 0 72 7 71 56 -6 19
-30 39 -52 44 -49 13 8 13 145 0 145 -5 0 -10 -26 -12 -57 l-3 -57 -38 57
c-52 79 -67 76 -67 -12z"/>
<path d="M940 220 c0 -40 4 -70 10 -70 6 0 10 30 10 70 0 40 -4 70 -10 70 -6
0 -10 -30 -10 -70z"/>
<path d="M2220 215 l0 -75 40 0 c22 0 40 5 40 10 0 6 -13 10 -30 10 l-30 0 0
65 c0 37 -4 65 -10 65 -6 0 -10 -32 -10 -75z"/>
<path d="M2410 215 l0 -75 30 0 c37 0 85 23 94 45 22 59 -13 105 -81 105 l-43
0 0 -75z m88 49 c22 -15 29 -57 14 -81 -10 -16 -62 -35 -79 -29 -14 6 -19 106
-6 119 11 12 48 7 71 -9z"/>
<path d="M990 160 c0 -5 5 -10 10 -10 6 0 10 5 10 10 0 6 -4 10 -10 10 -5 0
-10 -4 -10 -10z"/>
<path d="M2110 161 c0 -6 5 -13 10 -16 6 -3 10 1 10 9 0 9 -4 16 -10 16 -5 0
-10 -4 -10 -9z"/>
<path d="M2180 151 c-6 -12 -7 -21 -1 -21 10 0 24 30 17 37 -2 3 -9 -5 -16
-16z"/>
<path d="M2570 154 c0 -8 5 -12 10 -9 6 3 10 10 10 16 0 5 -4 9 -10 9 -5 0
-10 -7 -10 -16z"/>
</g>
</svg>
